<svg width="1600" height="1000" viewBox="0 0 1600 1000" fill="none" xmlns="http://www.w3.org/2000/svg">
  <defs>
    <linearGradient id="bg" x1="0" y1="0" x2="1600" y2="1000" gradientUnits="userSpaceOnUse">
      <stop stop-color="#0A0A0A" />
      <stop offset="1" stop-color="#111111" />
    </linearGradient>
    <radialGradient id="g1" cx="0" cy="0" r="1" gradientUnits="userSpaceOnUse" gradientTransform="translate(420 260) rotate(35) scale(620 420)">
      <stop stop-color="#00FF9F" stop-opacity="0.28"/>
      <stop offset="1" stop-color="#00FF9F" stop-opacity="0"/>
    </radialGradient>
    <radialGradient id="g2" cx="0" cy="0" r="1" gradientUnits="userSpaceOnUse" gradientTransform="translate(1180 240) rotate(10) scale(560 380)">
      <stop stop-color="#00E5FF" stop-opacity="0.22"/>
      <stop offset="1" stop-color="#00E5FF" stop-opacity="0"/>
    </radialGradient>
    <linearGradient id="stroke" x1="0" y1="0" x2="1600" y2="0" gradientUnits="userSpaceOnUse">
      <stop stop-color="#00FF9F" stop-opacity="0"/>
      <stop offset="0.5" stop-color="#00FF9F" stop-opacity="0.35"/>
      <stop offset="1" stop-color="#00E5FF" stop-opacity="0"/>
    </linearGradient>
  </defs>

  <rect width="1600" height="1000" rx="48" fill="url(#bg)"/>
  <rect width="1600" height="1000" rx="48" fill="url(#g1)"/>
  <rect width="1600" height="1000" rx="48" fill="url(#g2)"/>

  <g opacity="0.9">
    <path d="M120 210H1480" stroke="url(#stroke)" stroke-width="2"/>
    <path d="M120 310H1480" stroke="rgba(255,255,255,0.06)" stroke-width="2"/>
    <path d="M120 410H1480" stroke="rgba(255,255,255,0.06)" stroke-width="2"/>
    <path d="M120 510H1480" stroke="rgba(255,255,255,0.06)" stroke-width="2"/>
    <path d="M120 610H1480" stroke="rgba(255,255,255,0.06)" stroke-width="2"/>
    <path d="M120 710H1480" stroke="rgba(255,255,255,0.06)" stroke-width="2"/>
  </g>

  <g>
    <rect x="120" y="120" width="520" height="140" rx="28" fill="rgba(255,255,255,0.04)" stroke="rgba(255,255,255,0.10)"/>
    <rect x="120" y="290" width="520" height="520" rx="28" fill="rgba(255,255,255,0.03)" stroke="rgba(255,255,255,0.10)"/>
    <rect x="680" y="120" width="800" height="690" rx="36" fill="rgba(0,0,0,0.25)" stroke="rgba(255,255,255,0.10)"/>

    <rect x="160" y="160" width="260" height="18" rx="9" fill="rgba(255,255,255,0.18)"/>
    <rect x="160" y="192" width="420" height="14" rx="7" fill="rgba(255,255,255,0.10)"/>

    <path d="M740 720C820 610 910 640 980 560C1050 480 1140 520 1200 430C1260 340 1340 360 1420 260" stroke="#00FF9F" stroke-opacity="0.75" stroke-width="6" stroke-linecap="round"/>
    <path d="M740 760C820 650 910 680 980 600C1050 520 1140 560 1200 470C1260 380 1340 400 1420 300" stroke="#00E5FF" stroke-opacity="0.35" stroke-width="4" stroke-linecap="round"/>
  </g>

  <g opacity="0.9">
    <text x="120" y="930" fill="rgba(255,255,255,0.55)" font-family="ui-sans-serif, system-ui" font-size="22" letter-spacing="4">
      PALLADIUM AI " MINI APP SCREENSHOTS (PLACEHOLDER)
    </text>
  </g>
</svg>

